<?xml version="1.0" standalone="no"?>
<!DOCTYPE svg PUBLIC "-//W3C//DTD SVG 20010904//EN"
 "http://www.w3.org/TR/2001/REC-SVG-20010904/DTD/svg10.dtd">
<svg version="1.0" xmlns="http://www.w3.org/2000/svg"
 width="180.000000pt" height="100.000000pt" viewBox="0 0 180.000000 100.000000"
 preserveAspectRatio="xMidYMid meet">
<metadata>
Created by potrace 1.16, written by Peter Selinger 2001-2019
</metadata>
<g transform="translate(0.000000,100.000000) scale(0.100000,-0.100000)"
fill="#000000" stroke="none">
<path d="M1373 736 c-20 -42 -32 -55 -55 -60 -32 -6 -37 -21 -9 -29 19 -5 19
-7 -4 -63 -14 -33 -25 -67 -25 -76 0 -16 -35 -48 -52 -48 -16 0 -7 51 12 70
24 24 25 36 4 44 -26 10 -84 -35 -84 -66 0 -20 -44 -53 -59 -44 -12 8 -4 32
21 65 40 52 7 78 -47 37 -46 -36 -58 -91 -25 -118 29 -23 62 -23 91 1 21 17
25 17 35 3 15 -20 69 -20 93 2 16 15 19 15 24 1 4 -9 19 -15 42 -15 39 0 82
30 97 70 9 23 10 23 19 7 6 -10 9 -28 7 -40 -2 -18 -8 -21 -30 -19 -23 3 -28
-1 -28 -17 0 -23 27 -41 63 -41 18 0 37 14 66 52 23 28 39 54 35 57 -3 3 -11
-2 -18 -11 -11 -15 -15 -14 -40 13 -29 30 -29 59 0 59 8 0 14 6 12 13 -10 28
-52 12 -85 -33 -56 -75 -72 -92 -83 -85 -7 4 -5 16 4 33 24 43 56 123 56 138
0 8 11 20 25 26 25 11 34 28 15 28 -6 0 -6 9 0 24 7 19 4 30 -11 50 -11 14
-25 26 -30 26 -5 0 -21 -24 -36 -54z"/>
<path d="M416 713 c-4 -4 -30 -10 -58 -13 -31 -3 -53 -10 -56 -19 -4 -11 6
-13 47 -9 28 3 51 1 51 -4 0 -5 -9 -26 -20 -48 -36 -71 -71 -173 -61 -183 5
-5 20 -7 35 -5 23 3 33 17 76 113 54 118 69 139 94 133 14 -2 11 -14 -19 -73
-19 -38 -49 -89 -65 -112 -39 -54 -46 -116 -13 -121 35 -5 61 15 88 68 20 40
35 54 73 72 26 11 59 33 75 46 23 23 27 23 27 8 0 -10 -9 -34 -21 -52 -20 -33
-15 -46 9 -22 9 9 12 6 12 -16 0 -15 5 -36 10 -47 14 -25 62 -25 85 1 13 14
22 17 29 10 16 -16 54 -12 68 8 14 18 58 25 53 8 -14 -44 -45 -189 -45 -210 0
-46 41 -17 77 55 40 81 74 259 53 284 -22 26 -38 16 -52 -31 -7 -27 -23 -53
-35 -62 -23 -14 -23 -14 -23 28 l0 42 -32 -7 c-36 -8 -68 -31 -68 -50 0 -19
-37 -61 -46 -52 -4 4 0 29 9 55 19 52 15 78 -12 87 -10 3 -17 15 -17 28 1 16
-5 22 -21 22 -12 0 -31 9 -42 19 -13 11 -30 17 -45 14 -18 -4 -26 0 -29 14 -5
18 -37 25 -51 11 -10 -10 -79 -4 -90 8 -12 11 -40 12 -50 2z"/>
</g>
</svg>
